<svg xmlns="http://www.w3.org/2000/svg" width="16" height="16" viewBox="0 0 16 16">
    <g fill="none" fill-rule="evenodd">
        <g fill="#A6358A" fill-rule="nonzero">
            <g>
                <path d="M9.342 9.347C8.764 9.925 8.313 10.6 8 11.333c-.313-.732-.764-1.408-1.342-1.986-.58-.58-1.257-1.033-1.991-1.347.734-.314 1.412-.767 1.991-1.347C7.236 6.075 7.687 5.4 8 4.667c.313.732.764 1.408 1.342 1.986.58.58 1.257 1.033 1.991 1.347-.734.314-1.412.767-1.991 1.347m4.778-2.742h-.117l-.001.003c-.017 0-.034-.002-.051 0-1.23.091-2.448-.354-3.328-1.234-.88-.88-1.324-2.099-1.232-3.328l-.001-.048V1.88c0-.302-.244-.547-.546-.547H7.148c-.302 0-.547.245-.547.547v.118l.007.001c0 .016-.002.031 0 .047.091 1.23-.354 2.448-1.234 3.328-.88.88-2.098 1.325-3.327 1.233h-.05v-.002H1.88c-.302 0-.547.244-.547.547v1.696c0 .302.245.547.547.547h.075c.03.003.06.004.092.002 1.23-.092 2.448.354 3.327 1.233.88.88 1.325 2.099 1.233 3.328l.001.043-.007.001v.118c0 .302.245.547.547.547h1.696c.302 0 .546-.245.546-.547v-.118c0-.014.002-.029 0-.044-.091-1.23.354-2.448 1.233-3.328.88-.88 2.099-1.325 3.328-1.233.031.002.062.001.092-.002h.077c.302 0 .547-.245.547-.547V7.152c0-.303-.245-.547-.547-.547" transform="translate(-190 -314) translate(190 314)"/>
            </g>
        </g>
    </g>
</svg>
