<svg width="72" height="16" viewBox="0 0 72 16" fill="#B12BA4" xmlns="http://www.w3.org/2000/svg">
<path fill-rule="evenodd" clip-rule="evenodd" d="M32.6387 12.5029C32.8942 12.5029 33.1045 12.6954 33.1315 12.9425L33.1344 12.9962L33.1343 15.278C33.1343 15.5323 32.941 15.7417 32.6926 15.7685L32.6386 15.7714H31.2501C30.9944 15.7714 30.7841 15.579 30.7572 15.3318L30.7543 15.278L30.7538 14.634L29.1569 14.6341C28.9014 14.6341 28.6911 14.4417 28.6642 14.1945L28.6613 14.1407V12.9962C28.6613 12.7421 28.8546 12.5326 29.1029 12.5058L29.1569 12.5029H32.6387ZM52.1181 2.04874C54.0159 2.04874 55.4873 3.47669 55.5443 5.34881L55.546 5.46166V8.87458H59.6595C60.2554 8.87458 60.5476 8.6093 60.5719 8.04349L60.5736 7.96447V4.77908C60.5736 4.53316 60.7384 4.35158 60.9748 4.32689L61.0306 4.32402H62.4018C62.6488 4.32402 62.8312 4.48804 62.856 4.72351L62.8589 4.77908V7.96447C62.8589 9.8516 61.6473 11.0971 59.7796 11.1482L59.6595 11.1499H56.6886C56.437 11.1499 56.2487 11.1019 56.0912 10.928L56.0448 10.8719L55.546 10.2397V10.6948C55.546 10.9402 55.3808 11.1222 55.1446 11.147L55.0889 11.1499H47.776C47.776 13.0408 46.1197 14.7256 44.2289 14.7885L44.1196 14.7903H40.4577C38.4388 14.7903 36.8605 13.2571 36.808 11.2653L36.8067 11.1499V7.05436C36.8067 6.80853 36.9715 6.62687 37.208 6.60217L37.2638 6.5993H38.6349C38.8819 6.5993 39.0643 6.7634 39.0891 6.99881L39.092 7.05436L39.0873 11.142C39.0873 11.8739 39.6582 12.471 40.3781 12.5127L40.4587 12.515H44.1196C44.7203 12.515 45.4375 11.8224 45.4879 11.2168L45.4908 11.1499H43.6625C43.4153 11.1499 43.2331 10.9861 43.2084 10.7504L43.2055 10.6948V9.32964C43.2055 9.08356 43.37 8.90211 43.6067 8.87745L43.6625 8.87458H53.2607V5.46166C53.2607 4.86622 52.7818 4.36558 52.1923 4.32648L52.1181 4.32402H47.5475C47.2721 4.32402 47.1562 3.92184 47.2923 3.68197L48.2331 2.27627C48.3642 2.10346 48.6828 2.06174 48.9475 2.0518L49.1472 2.04874H52.1181ZM61.4877 12.515C61.7349 12.515 61.9171 12.6789 61.9419 12.9145L61.9447 12.9701V14.3353C61.9447 14.5814 61.7802 14.7628 61.5436 14.7874L61.4877 14.7903H57.8312C57.584 14.7903 57.4018 14.6265 57.3771 14.3909L57.3742 14.3353V12.9701C57.3742 12.724 57.5387 12.5426 57.7754 12.5179L57.8312 12.515H61.4877ZM51.204 12.515C51.4511 12.515 51.6334 12.6789 51.6581 12.9145L51.661 12.9701V14.3353C51.661 14.5814 51.4964 14.7628 51.2598 14.7874L51.204 14.7903H49.6043C49.3571 14.7903 49.1749 14.6265 49.1501 14.3909L49.1472 14.3353V12.9701C49.1472 12.724 49.3118 12.5426 49.5484 12.5179L49.6043 12.515H51.204ZM9.37138 4.32402C9.61842 4.32402 9.80085 4.48809 9.82565 4.72345L9.82853 4.77899V8.87446L11.2 8.87458C11.9303 8.87458 12.5273 8.30365 12.5691 7.58373L12.5714 7.50315V4.77908C12.5714 4.53326 12.7369 4.35159 12.9732 4.32689L13.0289 4.32402H14.3762C14.6241 4.32402 14.8282 4.51093 14.8543 4.75108L14.8571 4.80331L14.8569 7.75089C14.8573 8.14729 14.7884 8.52967 14.662 8.88527L14.8665 8.88389C15.5933 8.87892 16.1849 8.30923 16.2262 7.59269L16.2285 7.5125V4.77908C16.2285 4.53326 16.394 4.35159 16.6303 4.32689L16.6861 4.32402H18.0334C18.2813 4.32402 18.4853 4.51093 18.5114 4.75108L18.5142 4.80331L18.5141 7.75089C18.5148 8.68579 18.1307 9.54272 17.5154 10.1543C16.9326 10.7369 16.1274 11.1114 15.2439 11.1471L15.1038 11.1499H14.4864C14.3545 11.1499 14.2291 11.0958 14.139 11.0019L13.6076 10.3808C13.0551 10.8321 12.3517 11.1154 11.5901 11.1469L11.4466 11.1499L9.82853 11.1346C9.82853 12.8657 8.45491 14.2754 6.73854 14.3334L6.62853 14.3353H3.88567C2.15518 14.3353 0.74551 12.9616 0.687524 11.2453L0.685669 11.1353V5.6891C0.685669 5.44332 0.850445 5.26169 1.08699 5.237L1.14281 5.23413H2.51424C2.76136 5.23413 2.94371 5.3982 2.9685 5.63356L2.97138 5.6891V10.6885C2.97138 11.4189 3.54232 12.0159 4.26223 12.0576L4.34281 12.06H6.17138C6.90175 12.06 7.49877 11.489 7.54048 10.7691L7.54281 10.6885V4.77899C7.54281 4.53321 7.70767 4.35158 7.94415 4.32689L7.99996 4.32402H9.37138ZM68.8006 2.04874C70.696 2.04874 71.947 3.25497 71.9983 5.11455L72 5.23413V7.96447C72 9.8516 70.7884 11.0971 68.9207 11.1482L68.8006 11.1499H64.6871C64.4402 11.1499 64.2577 10.9858 64.2329 10.7504L64.23 10.6948V9.32964C64.23 9.08364 64.3948 8.90212 64.6313 8.87745L64.6871 8.87458H68.8006C69.3965 8.87458 69.6887 8.6093 69.713 8.04349L69.7147 7.96447V5.23413C69.7147 4.64085 69.4484 4.34985 68.88 4.32567L68.8006 4.32402H64.6871C64.4402 4.32402 64.2577 4.15992 64.2329 3.92451L64.23 3.86896V2.5038C64.23 2.25789 64.3948 2.0763 64.6313 2.05161L64.6871 2.04874H68.8006ZM27.6674 0.228516C27.9144 0.228516 28.0968 0.392617 28.1215 0.628024L28.1244 0.683572V7.96447C28.1244 8.29154 28.0953 8.59539 28.0379 8.8751L31.0857 8.87458C31.403 8.87382 31.6867 8.72903 31.896 8.52549C32.0825 8.34042 32.202 8.10215 32.2246 7.82919L32.2285 7.73694V4.78869C32.2285 4.5376 32.3882 4.35043 32.6322 4.32659L32.6857 4.32402H34.0571C34.3114 4.32402 34.4876 4.48443 34.5115 4.72274L34.5143 4.77908V7.6957C34.515 8.64578 34.119 9.51662 33.4847 10.1381C32.8839 10.7302 32.1324 11.1108 31.2295 11.147L31.0857 11.1499H28.1594C28.0234 11.1499 27.8942 11.0949 27.8013 10.9995L27.7637 10.9563L27.2857 10.3353C26.7717 10.8409 26.03 11.1196 25.0845 11.1475L24.925 11.1499H19.8974C19.6504 11.1499 19.4681 10.9859 19.4433 10.7504L19.4404 10.6948V9.32964C19.4404 9.08381 19.6051 8.90215 19.8416 8.87745L19.8974 8.87458H24.925C25.521 8.87458 25.8132 8.60946 25.8375 8.04351L25.8392 7.96447V0.683572C25.8392 0.437744 26.004 0.256084 26.2404 0.231386L26.2962 0.228516H27.6674ZM20.6554 0.228516C20.8983 0.228516 21.1639 0.333433 21.2298 0.566311L23.1044 6.88732C23.1756 7.13893 23.0138 7.33251 22.7512 7.33251H21.261C21.0131 7.33251 20.7954 7.16842 20.7282 6.93092L18.9833 0.683572C18.9116 0.430058 19.1758 0.228516 19.4404 0.228516H20.6554Z"/>
</svg>
