<svg xmlns:xlink="http://www.w3.org/1999/xlink" xmlns="http://www.w3.org/2000/svg" style="width: 18px; height: 18px; fill: var(--color-neutral-400);" width="24"  height="24" ><defs><symbol id="ads" xmlns="http://www.w3.org/2000/svg" viewBox="0 0 24 24"><path fill-rule="evenodd" d="M20.198 1.408l2.779 15.757-4.803.847-2.737-.302a4 4 0 01-7.972-.207l-.006-.205-.005-.442-4.694.827-1.737-9.848 4.782-.843 9.591-4.737 4.802-.847zM9.456 17.05l.003.238a2 2 0 003.99.203l-3.993-.441zm7.15-12.979l1.97-.346 2.084 11.818-1.97.347L16.606 4.07zm-1.898.753L7.236 8.516l1.129 6.402 8.284.913-1.94-11.007zM3.34 9.458l1.97-.348 1.042 5.91-1.97.346L3.34 9.458z" clip-rule="evenodd"></path></symbol></defs><use xlink:href="#ads" fill="#9E9FB1"></use></svg>