<svg xmlns:xlink="http://www.w3.org/1999/xlink" xmlns="http://www.w3.org/2000/svg" style="width: 24px; height: 24px; fill: var(--color-icon-low-emphasis);" width="24"  height="24" ><defs><symbol id="home1Outline" xmlns="http://www.w3.org/2000/svg" viewBox="0 0 24 24"><path fill-rule="evenodd" d="M20 18.172v-6.586l1.293 1.293 1.414-1.415-8.586-8.585a3 3 0 00-4.242 0l-8.586 8.585 1.414 1.415L4 11.586v6.586a3 3 0 003 3h10a3 3 0 003-3zm-14 0V9.586l5.293-5.293a1 1 0 011.414 0L18 9.586v8.586a1 1 0 01-1 1H7a1 1 0 01-1-1z" clip-rule="evenodd"></path></symbol></defs><use xlink:href="#home1Outline" fill="#A1A3A8"></use></svg>