<svg xmlns:xlink="http://www.w3.org/1999/xlink" xmlns="http://www.w3.org/2000/svg" style="width: 20px; height: 20px; fill: var(--color-icon-low-emphasis);" width="24"  height="24" ><defs><symbol id="priceTag" xmlns="http://www.w3.org/2000/svg" viewBox="0 0 24 24"><path fill-rule="evenodd" d="M2.293 12.293l9-9A1 1 0 0112 3h5a1 1 0 01.707.293l3 3A1 1 0 0121 7v5a1 1 0 01-.293.707l-9 9a1 1 0 01-1.414 0l-8-8a1 1 0 010-1.414zM4.414 13L11 19.586l8-8V7.414L16.586 5h-4.172l-8 8zM15 12a3 3 0 110-6 3 3 0 010 6zm0-2a1 1 0 100-2 1 1 0 000 2z" clip-rule="evenodd"></path></symbol></defs><use xlink:href="#priceTag" fill="#9E9FB1"></use></svg>