<svg xmlns:xlink="http://www.w3.org/1999/xlink" xmlns="http://www.w3.org/2000/svg" style="width: 16px; height: 16px; fill: var(--color-icon-success);" width="24"  height="24" ><defs><symbol id="thumbsUp" xmlns="http://www.w3.org/2000/svg" viewBox="0 0 24 24"><path fill-rule="evenodd" d="M7.5 8l3.15-4.2a4.5 4.5 0 013.6-1.8 2.483 2.483 0 012.449 2.89L16.18 8h2.424a3 3 0 012.951 3.537l-.974 5.357A5 5 0 0115.661 21h-6.55c-.148 0-.294-.033-.428-.096l-.824-.39A1 1 0 017 21H3a1 1 0 01-1-1V9a1 1 0 011-1h4.5zm.5 2v8.367L9.336 19h6.326a3 3 0 002.951-2.463l.974-5.358A1 1 0 0018.603 10H15a1 1 0 01-.986-1.164l.712-4.274A.482.482 0 0014.25 4a2.5 2.5 0 00-2 1L8.8 9.6a1 1 0 01-.8.4zm-2 0H4v9h2v-9z" clip-rule="evenodd"></path></symbol></defs><use xlink:href="#thumbsUp" fill="#4CAF50"></use></svg>