<svg xmlns:xlink="http://www.w3.org/1999/xlink" xmlns="http://www.w3.org/2000/svg" style="width: 24px; height: 24px; fill: var(--color-icon-low-emphasis);" width="24"  height="24" ><defs><symbol id="moreVert" xmlns="http://www.w3.org/2000/svg" viewBox="0 0 24 24"><path fill-rule="evenodd" d="M12 8c1.1 0 2-.9 2-2s-.9-2-2-2-2 .9-2 2 .9 2 2 2zm-2 4c0 1.1.9 2 2 2s2-.9 2-2-.9-2-2-2-2 .9-2 2zm2 8c-1.1 0-2-.9-2-2s.9-2 2-2 2 .9 2 2-.9 2-2 2z" clip-rule="evenodd"></path></symbol></defs><use xlink:href="#moreVert" fill="#A1A3A8"></use></svg>