<svg xmlns:xlink="http://www.w3.org/1999/xlink" xmlns="http://www.w3.org/2000/svg" style="width: 24px; height: 24px; fill: var(--color-icon-high-emphasis);" width="24"  height="24" ><defs><symbol id="priceChart" xmlns="http://www.w3.org/2000/svg" viewBox="0 0 24 24"><path fill-rule="evenodd" d="M4 18V4H2v15a1 1 0 001 1h19v-2H4zM22 8a2 2 0 10-3.933.517l-2.55 2.55a2.003 2.003 0 00-1.034 0l-1.55-1.55A2.003 2.003 0 0011 7a2 2 0 00-1.933 2.517l-1.55 1.55A2.003 2.003 0 005 13a2 2 0 103.933-.517l1.55-1.55a2.003 2.003 0 001.035 0l1.55 1.55A2.003 2.003 0 0015 15a2 2 0 001.933-2.517l2.55-2.55A2.002 2.002 0 0022 8z" clip-rule="evenodd"></path></symbol></defs><use xlink:href="#priceChart" fill="#3F4064"></use></svg>