<svg xmlns:xlink="http://www.w3.org/1999/xlink" xmlns="http://www.w3.org/2000/svg" style="width: 24px; height: 24px; fill: var(--color-icon-low-emphasis);" width="24"  height="24" ><defs><symbol id="categoryOutline" xmlns="http://www.w3.org/2000/svg" viewBox="0 0 24 24"><path fill-rule="evenodd" d="M10 2H3a1 1 0 00-1 1v7a1 1 0 001 1h7a1 1 0 001-1V3a1 1 0 00-1-1zM4 9V4h5v5H4zm17 4a1 1 0 011 1v7a1 1 0 01-1 1h-7a1 1 0 01-1-1v-7a1 1 0 011-1h7zm-3.5-2a4.5 4.5 0 110-9 4.5 4.5 0 010 9zM20 6.5a2.5 2.5 0 11-5 0 2.5 2.5 0 015 0zM6.5 22a4.5 4.5 0 110-9 4.5 4.5 0 010 9zM9 17.5a2.5 2.5 0 11-5 0 2.5 2.5 0 015 0zm6 2.5v-5h5v5h-5z" clip-rule="evenodd"></path></symbol></defs><use xlink:href="#categoryOutline" fill="#A1A3A8"></use></svg>